Coordinates
version=1
nRows=25
nColumns=21
inDegrees=yes

Units are S.I. units (second, meters, Newtons, ...)
If the header above contains a line with 'inDegrees', this indicates whether rotational values are in degrees (yes) or radians (no).

endheader
time	sternoclavicular_r2	sternoclavicular_r3	unrotscap_r3	unrotscap_r2	acromioclavicular_r2	acromioclavicular_r3	acromioclavicular_r1	unrothum_r1	unrothum_r3	unrothum_r2	elv_angle	shoulder_elev	shoulder1_r2	shoulder_rot	elbow_flexion	pro_sup	deviation	flexion	wrist_hand_r1	wrist_hand_r3
      0.00000000	     -0.00204531	      0.00086630	     -0.00086630	      0.00204531	     -0.00041413	      0.00334688	      0.00150440	     -0.00150440	     -0.00334688	      0.00041413	     71.38835862	      0.00845168	    -71.38835862	     20.04577997	    129.99631607	      0.00000000	      0.00000000	     -0.00000000	     -0.00000000	      0.00000000
      0.10101010	     -0.00204406	      0.00086577	     -0.00086577	      0.00204406	     -0.00041388	      0.00334484	      0.00150348	     -0.00150348	     -0.00334484	      0.00041388	     70.83619191	      0.00844653	    -70.83619191	     20.04575877	    129.99631513	      0.00000000	      0.00000000	     -0.00000000	     -0.00000000	      0.00000000
      0.20202020	     -0.00204218	      0.00086497	     -0.00086497	      0.00204218	     -0.00041350	      0.00334177	      0.00150210	     -0.00150210	     -0.00334177	      0.00041350	     70.28443508	      0.00843875	    -70.28443508	     20.04573884	    129.99631442	      0.00000000	      0.00000000	     -0.00000000	     -0.00000000	      0.00000000
      0.30303030	     -0.00204026	      0.00086416	     -0.00086416	      0.00204026	     -0.00041311	      0.00333863	      0.00150069	     -0.00150069	     -0.00333863	      0.00041311	     69.73291722	      0.00843083	    -69.73291722	     20.04571980	    129.99631264	      0.00000000	      0.00000000	     -0.00000000	     -0.00000000	      0.00000000
      0.40404040	     -0.00203812	      0.00086325	     -0.00086325	      0.00203812	     -0.00041268	      0.00333511	      0.00149911	     -0.00149911	     -0.00333511	      0.00041268	     69.18135176	      0.00842195	    -69.18135176	     20.04570280	    129.99630878	      0.00000000	      0.00000000	     -0.00000000	     -0.00000000	      0.00000000
      0.50505051	     -0.00203556	      0.00086217	     -0.00086217	      0.00203556	     -0.00041216	      0.00333093	      0.00149723	     -0.00149723	     -0.00333093	      0.00041216	     68.62934069	      0.00841139	    -68.62934069	     20.04568902	    129.99630188	      0.00000000	      0.00000000	     -0.00000000	     -0.00000000	      0.00000000
      0.60606061	     -0.00203244	      0.00086085	     -0.00086085	      0.00203244	     -0.00041153	      0.00332582	      0.00149494	     -0.00149494	     -0.00332582	      0.00041153	     68.07637767	      0.00839850	    -68.07637767	     20.04567955	    129.99629100	      0.00000000	      0.00000000	     -0.00000000	     -0.00000000	      0.00000000
      0.70707071	     -0.00202862	      0.00085923	     -0.00085923	      0.00202862	     -0.00041075	      0.00331957	      0.00149212	     -0.00149212	     -0.00331957	      0.00041075	     67.52184945	      0.00838270	    -67.52184945	     20.04567548	    129.99627525	      0.00000000	      0.00000000	     -0.00000000	     -0.00000000	      0.00000000
      0.80808081	     -0.00202398	      0.00085726	     -0.00085726	      0.00202398	     -0.00040981	      0.00331197	      0.00148871	     -0.00148871	     -0.00331197	      0.00040981	     66.96503501	      0.00836352	    -66.96503501	     20.04567784	    129.99625369	      0.00000000	      0.00000000	     -0.00000000	     -0.00000000	      0.00000000
      0.90909091	     -0.00201842	      0.00085491	     -0.00085491	      0.00201842	     -0.00040869	      0.00330288	      0.00148462	     -0.00148462	     -0.00330288	      0.00040869	     66.40510219	      0.00834057	    -66.40510219	     20.04568762	    129.99622538	      0.00000000	      0.00000000	     -0.00000000	     -0.00000000	      0.00000000
      1.01010101	     -0.00201189	      0.00085214	     -0.00085214	      0.00201189	     -0.00040737	      0.00329220	      0.00147982	     -0.00147982	     -0.00329220	      0.00040737	     65.84110130	      0.00831358	    -65.84110130	     20.04570572	    129.99618930	      0.00000000	      0.00000000	     -0.00000000	     -0.00000000	      0.00000000
      1.11111111	     -0.00200434	      0.00084894	     -0.00084894	      0.00200434	     -0.00040584	      0.00327984	      0.00147427	     -0.00147427	     -0.00327984	      0.00040584	     65.27195499	      0.00828239	    -65.27195499	     20.04573297	    129.99614437	      0.00000000	      0.00000000	     -0.00000000	     -0.00000000	      0.00000000
      1.21212121	     -0.00199577	      0.00084531	     -0.00084531	      0.00199577	     -0.00040410	      0.00326581	      0.00146796	     -0.00146796	     -0.00326581	      0.00040410	     64.69644380	      0.00824696	    -64.69644380	     20.04577009	    129.99608932	      0.00000000	      0.00000000	     -0.00000000	     -0.00000000	      0.00000000
      1.31313131	     -0.00198619	      0.00084126	     -0.00084126	      0.00198619	     -0.00040216	      0.00325014	      0.00146091	     -0.00146091	     -0.00325014	      0.00040216	     64.11318604	      0.00820737	    -64.11318604	     20.04581770	    129.99602275	      0.00000000	      0.00000000	     -0.00000000	     -0.00000000	      0.00000000
      1.41414141	     -0.00197565	      0.00083679	     -0.00083679	      0.00197565	     -0.00040003	      0.00323290	      0.00145317	     -0.00145317	     -0.00323290	      0.00040003	     63.52061070	      0.00816384	    -63.52061070	     20.04587627	    129.99594296	      0.00000000	      0.00000000	     -0.00000000	     -0.00000000	      0.00000000
      1.51515152	     -0.00328714	      0.00139228	     -0.00139228	      0.00328714	     -0.00066558	      0.00537897	      0.00241781	     -0.00241781	     -0.00537897	      0.00066558	     62.84530361	      0.01358318	    -62.84530361	     20.04132317	    129.99502003	      0.00000000	      0.00000000	     -0.00000000	     -0.00000000	      0.00000000
      1.61616162	     -0.00316506	      0.00134057	     -0.00134057	      0.00316506	     -0.00064086	      0.00517921	      0.00232802	     -0.00232802	     -0.00517921	      0.00064086	     62.14555525	      0.01307874	    -62.14555525	     20.04171560	    129.99483041	      0.00000000	      0.00000000	     -0.00000000	     -0.00000000	      0.00000000
      1.71717172	     -0.00304380	      0.00128921	     -0.00128921	      0.00304380	     -0.00061631	      0.00498078	      0.00223883	     -0.00223883	     -0.00498078	      0.00061631	     61.41166428	      0.01257766	    -61.41166428	     20.04211904	    129.99459780	      0.00000000	      0.00000000	     -0.00000000	     -0.00000000	      0.00000000
      1.81818182	     -0.00292503	      0.00123890	     -0.00123890	      0.00292503	     -0.00059226	      0.00478643	      0.00215147	     -0.00215147	     -0.00478643	      0.00059226	     60.63519221	      0.01208688	    -60.63519221	     20.04252835	    129.99431778	      0.00000000	      0.00000000	     -0.00000000	     -0.00000000	      0.00000000
      1.91919192	     -0.00281216	      0.00119110	     -0.00119110	      0.00281216	     -0.00056940	      0.00460173	      0.00206845	     -0.00206845	     -0.00460173	      0.00056940	     59.80511910	      0.01162046	    -59.80511910	     20.04293966	    129.99398008	      0.00000000	      0.00000000	     -0.00000000	     -0.00000000	      0.00000000
      2.02020202	     -0.00270844	      0.00114717	     -0.00114717	      0.00270844	     -0.00054840	      0.00443201	      0.00199216	     -0.00199216	     -0.00443201	      0.00054840	     58.90667084	      0.01119188	    -58.90667084	     20.04335091	    129.99357198	      0.00000000	      0.00000000	     -0.00000000	     -0.00000000	      0.00000000
      2.12121212	     -0.00261675	      0.00110833	     -0.00110833	      0.00261675	     -0.00052984	      0.00428198	      0.00192472	     -0.00192472	     -0.00428198	      0.00052984	     57.91945020	      0.01081301	    -57.91945020	     20.04376236	    129.99307787	      0.00000000	      0.00000000	     -0.00000000	     -0.00000000	      0.00000000
      2.22222222	     -0.00253931	      0.00107553	     -0.00107553	      0.00253931	     -0.00051416	      0.00415525	      0.00186776	     -0.00186776	     -0.00415525	      0.00051416	     56.81438092	      0.01049300	    -56.81438092	     20.04417726	    129.99247892	      0.00000000	      0.00000000	     -0.00000000	     -0.00000000	      0.00000000
      2.32323232	     -0.00247727	      0.00104926	     -0.00104926	      0.00247727	     -0.00050160	      0.00405374	      0.00182213	     -0.00182213	     -0.00405374	      0.00050160	     55.54857275	      0.01023665	    -55.54857275	     20.04460328	    129.99175282	      0.00000000	      0.00000000	     -0.00000000	     -0.00000000	      0.00000000
      2.42424242	     -0.00243033	      0.00102937	     -0.00102937	      0.00243033	     -0.00049209	      0.00397692	      0.00178760	     -0.00178760	     -0.00397692	      0.00049209	     54.05659474	      0.01004267	    -54.05659474	     20.04505613	    129.99087355	      0.00000000	      0.00000000	     -0.00000000	     -0.00000000	      0.00000000
